<?xml version="1.0" encoding="UTF-8"?>
<svg xmlns="http://www.w3.org/2000/svg" xmlns:xlink="http://www.w3.org/1999/xlink"
     width="600.0" height="413.5" viewBox="0 0 600.0 413.5">
<defs>
</defs>
<rect x="0" y="0" width="600.0" height="413.5" fill="#e8e8e8" />
<path d="M100.0,12.5 L100.0,387.5" stroke="#b8b8b8" stroke-width="0.7" stroke-dasharray="4,4" />
<path d="M200.0,12.5 L200.0,387.5" stroke="#b8b8b8" stroke-width="0.7" stroke-dasharray="4,4" />
<path d="M300.0,12.5 L300.0,387.5" stroke="#b8b8b8" stroke-width="0.7" stroke-dasharray="4,4" />
<path d="M400.0,12.5 L400.0,387.5" stroke="#b8b8b8" stroke-width="0.7" stroke-dasharray="4,4" />
<path d="M500.0,12.5 L500.0,387.5" stroke="#b8b8b8" stroke-width="0.7" stroke-dasharray="4,4" />
<path d="M100.0,375.0 L100.0,275.0" stroke="#4a4f5a" stroke-width="2" stroke-linecap="round" />
<path d="M100.0,275.0 L180.0,275.0 A20,20,0,0,0,200.0,255.0 L200.0,225.0" stroke="#56b393" stroke-width="2" fill="none" stroke-linecap="round" />
<path d="M200.0,225.0 L280.0,225.0 A20,20,0,0,0,300.0,205.0 L300.0,175.0" stroke="#6b8bc2" stroke-width="2" fill="none" stroke-linecap="round" />
<path d="M300.0,175.0 L380.0,175.0 A20,20,0,0,0,400.0,155.0 L400.0,125.0" stroke="#c06b8b" stroke-width="2" fill="none" stroke-linecap="round" />
<path d="M400.0,125.0 L480.0,125.0 A20,20,0,0,0,500.0,105.0 L500.0,75.0" stroke="#977fc2" stroke-width="2" fill="none" stroke-linecap="round" />
<circle cx="100.0" cy="375.0" r="5" fill="#4a4f5a" stroke="white" stroke-width="1.5" />
<circle cx="100.0" cy="325.0" r="5" fill="#4a4f5a" stroke="white" stroke-width="1.5" />
<circle cx="100.0" cy="275.0" r="5" fill="#4a4f5a" stroke="white" stroke-width="1.5" />
<circle cx="200.0" cy="225.0" r="5" fill="#56b393" stroke="white" stroke-width="1.5" />
<circle cx="300.0" cy="175.0" r="5" fill="#6b8bc2" stroke="white" stroke-width="1.5" />
<circle cx="400.0" cy="125.0" r="5" fill="#c06b8b" stroke="white" stroke-width="1.5" />
<circle cx="500.0" cy="75.0" r="5" fill="#977fc2" stroke="white" stroke-width="1.5" />
<rect x="80.2580575" y="390.5" width="39.483885" height="19.0" rx="4" ry="4" fill="#4a4f5a" opacity="0.85" />
<text x="100.0" y="400.0" font-size="11.0" text-anchor="middle" dominant-baseline="middle" fill="white" font-family="'Inter', 'Helvetica Neue', Helvetica, Arial, sans-serif" font-weight="500">main</text>
<rect x="163.76342549999998" y="240.5" width="72.473149" height="19.0" rx="4" ry="4" fill="#56b393" opacity="0.85" />
<text x="200.0" y="250.0" font-size="11.0" text-anchor="middle" dominant-baseline="middle" fill="white" font-family="'Inter', 'Helvetica Neue', Helvetica, Arial, sans-serif" font-weight="500">feat/part-1</text>
<rect x="263.7634255" y="190.5" width="72.473149" height="19.0" rx="4" ry="4" fill="#6b8bc2" opacity="0.85" />
<text x="300.0" y="200.0" font-size="11.0" text-anchor="middle" dominant-baseline="middle" fill="white" font-family="'Inter', 'Helvetica Neue', Helvetica, Arial, sans-serif" font-weight="500">feat/part-2</text>
<rect x="363.7634255" y="140.5" width="72.473149" height="19.0" rx="4" ry="4" fill="#c06b8b" opacity="0.85" />
<text x="400.0" y="150.0" font-size="11.0" text-anchor="middle" dominant-baseline="middle" fill="white" font-family="'Inter', 'Helvetica Neue', Helvetica, Arial, sans-serif" font-weight="500">feat/part-3</text>
<rect x="463.7097125" y="90.5" width="72.580575" height="19.0" rx="4" ry="4" fill="#977fc2" opacity="0.85" />
<text x="500.0" y="100.0" font-size="11.0" text-anchor="middle" dominant-baseline="middle" fill="white" font-family="'Inter', 'Helvetica Neue', Helvetica, Arial, sans-serif" font-weight="500">feat/part-4</text>
<text x="88.0" y="375.0" font-size="9.0" text-anchor="end" dominant-baseline="middle" fill="#707070" font-family="'Inter', 'Helvetica Neue', Helvetica, Arial, sans-serif" font-weight="400">fda2b44</text>
<text x="88.0" y="325.0" font-size="9.0" text-anchor="end" dominant-baseline="middle" fill="#707070" font-family="'Inter', 'Helvetica Neue', Helvetica, Arial, sans-serif" font-weight="400">44eadda</text>
<text x="88.0" y="275.0" font-size="9.0" text-anchor="end" dominant-baseline="middle" fill="#707070" font-family="'Inter', 'Helvetica Neue', Helvetica, Arial, sans-serif" font-weight="400">3ffc5d0</text>
<text x="188.0" y="217.5" font-size="11.0" text-anchor="end" dominant-baseline="middle" fill="#383838" font-family="'Inter', 'Helvetica Neue', Helvetica, Arial, sans-serif" font-weight="400">part 1</text>
<text x="188.0" y="232.5" font-size="9.0" text-anchor="end" dominant-baseline="middle" fill="#707070" font-family="'Inter', 'Helvetica Neue', Helvetica, Arial, sans-serif" font-weight="400">ae0587a</text>
<text x="288.0" y="167.5" font-size="11.0" text-anchor="end" dominant-baseline="middle" fill="#383838" font-family="'Inter', 'Helvetica Neue', Helvetica, Arial, sans-serif" font-weight="400">part 2</text>
<text x="288.0" y="182.5" font-size="9.0" text-anchor="end" dominant-baseline="middle" fill="#707070" font-family="'Inter', 'Helvetica Neue', Helvetica, Arial, sans-serif" font-weight="400">d281270</text>
<text x="388.0" y="117.5" font-size="11.0" text-anchor="end" dominant-baseline="middle" fill="#383838" font-family="'Inter', 'Helvetica Neue', Helvetica, Arial, sans-serif" font-weight="400">part 3</text>
<text x="388.0" y="132.5" font-size="9.0" text-anchor="end" dominant-baseline="middle" fill="#707070" font-family="'Inter', 'Helvetica Neue', Helvetica, Arial, sans-serif" font-weight="400">f705c88</text>
<text x="488.0" y="67.5" font-size="11.0" text-anchor="end" dominant-baseline="middle" fill="#383838" font-family="'Inter', 'Helvetica Neue', Helvetica, Arial, sans-serif" font-weight="400">part 4</text>
<text x="488.0" y="82.5" font-size="9.0" text-anchor="end" dominant-baseline="middle" fill="#707070" font-family="'Inter', 'Helvetica Neue', Helvetica, Arial, sans-serif" font-weight="400">9f991bb</text>
</svg>